<svg width="40" height="42" viewBox="0 0 40 42" fill="none" xmlns="http://www.w3.org/2000/svg">
  <defs>
    <linearGradient id="n-header" x1="0" y1="2" x2="40" y2="42" gradientUnits="userSpaceOnUse">
      <stop offset="0%" stop-color="#6366f1"/>
      <stop offset="100%" stop-color="#7c3aed"/>
    </linearGradient>
    <linearGradient id="n-dot" x1="0" y1="0" x2="1" y2="1">
      <stop offset="0%" stop-color="#fbbf24"/>
      <stop offset="100%" stop-color="#f97316"/>
    </linearGradient>
  </defs>

  <!-- Icon background -->
  <rect x="0" y="2" width="40" height="40" rx="9" fill="white" stroke="#e2e5ef" stroke-width="1.5"/>

  <!-- Calendar header bar -->
  <rect x="0" y="2" width="40" height="14" rx="9" fill="url(#n-header)"/>
  <rect x="0" y="10" width="40" height="6" fill="url(#n-header)"/>

  <!-- Pins -->
  <rect x="10" y="0" width="4" height="8" rx="2" fill="#818cf8"/>
  <rect x="26" y="0" width="4" height="8" rx="2" fill="#818cf8"/>

  <!-- Day dots row 1 -->
  <rect x="6"  y="22" width="5" height="5" rx="1.5" fill="#dde2ef"/>
  <rect x="14" y="22" width="5" height="5" rx="1.5" fill="#dde2ef"/>
  <rect x="22" y="22" width="5" height="5" rx="1.5" fill="#dde2ef"/>
  <rect x="30" y="22" width="5" height="5" rx="1.5" fill="#dde2ef"/>

  <!-- Day dots row 2 -->
  <rect x="6"  y="30" width="5" height="5" rx="1.5" fill="#dde2ef"/>
  <rect x="14" y="30" width="5" height="5" rx="1.5" fill="#dde2ef"/>
  <rect x="22" y="30" width="5" height="5" rx="1.5" fill="#dde2ef"/>

  <!-- Accent event dot -->
  <rect x="30" y="30" width="5" height="5" rx="1.5" fill="url(#n-dot)"/>
</svg>
